<svg width="15" height="15" viewBox="0 0 15 15" fill="none" xmlns="http://www.w3.org/2000/svg">
<path fill-rule="evenodd" clip-rule="evenodd" d="M5.25373 2.43162L4.37482 3.75H3.74982C2.36911 3.75 1.24982 4.86929 1.24982 6.25V10.625C1.24982 12.0057 2.36911 13.125 3.74982 13.125H11.2498C12.6305 13.125 13.7498 12.0057 13.7498 10.625V6.25C13.7498 4.86929 12.6305 3.75 11.2498 3.75H10.6248L9.7459 2.43162C9.51407 2.08388 9.12378 1.875 8.70584 1.875H6.2938C5.87586 1.875 5.48557 2.08388 5.25373 2.43162ZM9.37499 8.4375C9.37499 9.47303 8.53553 10.3125 7.49999 10.3125C6.46446 10.3125 5.62499 9.47303 5.62499 8.4375C5.62499 7.40197 6.46446 6.5625 7.49999 6.5625C8.53553 6.5625 9.37499 7.40197 9.37499 8.4375ZM7.49982 4.375C7.845 4.375 8.12482 4.09518 8.12482 3.75C8.12482 3.40482 7.845 3.125 7.49982 3.125C7.15464 3.125 6.87482 3.40482 6.87482 3.75C6.87482 4.09518 7.15464 4.375 7.49982 4.375Z" fill="#636366"/>
</svg>
