<svg width="18" height="16" viewBox="0 0 18 16" fill="none" xmlns="http://www.w3.org/2000/svg">
<path fill-rule="evenodd" clip-rule="evenodd" d="M8.16669 0.5H9.83335C13.9755 0.5 17.3334 3.85786 17.3334 8C17.3334 12.1421 13.9755 15.5 9.83335 15.5H4.00002C2.15907 15.5 0.666687 14.0076 0.666687 12.1667V8C0.666687 3.85786 4.02455 0.5 8.16669 0.5ZM5.66669 10.2917C5.32151 10.2917 5.04169 10.0118 5.04169 9.66667C5.04169 9.32149 5.32151 9.04167 5.66669 9.04167H9.00002C9.3452 9.04167 9.62502 9.32149 9.62502 9.66667C9.62502 10.0118 9.3452 10.2917 9.00002 10.2917H5.66669ZM5.66669 6.95833C5.32151 6.95833 5.04169 6.67851 5.04169 6.33333C5.04169 5.98816 5.32151 5.70833 5.66669 5.70833H12.3334C12.6785 5.70833 12.9584 5.98816 12.9584 6.33333C12.9584 6.67851 12.6785 6.95833 12.3334 6.95833H5.66669Z" fill="#4D4D52"/>
</svg>
