<svg width="65" height="65" viewBox="0 0 65 65" fill="none" xmlns="http://www.w3.org/2000/svg">
<circle cx="32.5" cy="32.5" r="32.5" fill="#FF3B30"/>
<path d="M19.9932 36.6868H24.6864C26.3626 36.6868 27.4521 34.9267 26.6978 33.502C26.1949 32.4963 26.614 31.2392 27.5359 30.6526C29.6311 29.3954 34.073 29.3116 36.252 30.6526C37.2577 31.1554 37.5929 32.4964 37.0901 33.502C36.3358 34.9268 37.4253 36.6868 39.1014 36.6868L43.7947 36.6868C45.0518 36.6029 46.0575 35.5972 46.0575 34.4239L46.0575 31.2392C45.9737 27.9707 39.7719 25.2888 31.8939 25.2888C24.016 25.2888 17.7303 27.8868 17.7303 31.2392V34.4239C17.8141 35.6811 18.8198 36.6868 19.9932 36.6868Z" fill="#F5F6F8"/>
</svg>
