<svg width="17" height="17" viewBox="0 0 17 17" fill="none" xmlns="http://www.w3.org/2000/svg">
<path d="M12.75 9.91602L13.4596 9.20646C13.8501 8.81593 13.8501 8.18277 13.4596 7.79224L12.75 7.08268" stroke="#FF3B30" stroke-width="1.5" stroke-linecap="round" stroke-linejoin="round"/>
<path d="M13.4583 8.5L9.20833 8.5M2.83333 12.2303V5.14698M11.3333 12.2303C11.3333 13.0127 10.6991 13.647 9.91667 13.647H7.08333M11.3333 5.14698C11.3333 4.36458 10.6991 3.73032 9.91667 3.73032H7.08333M3.46417 14.0675L4.88084 15.012C5.82229 15.6396 7.08333 14.9647 7.08333 13.8333V3.54405C7.08333 2.41256 5.82229 1.73768 4.88084 2.36531L3.46417 3.30976C3.07006 3.5725 2.83333 4.01483 2.83333 4.48849V12.8888C2.83333 13.3625 3.07006 13.8048 3.46417 14.0675Z" stroke="#FF3B30" stroke-width="1.5" stroke-linecap="round"/>
</svg>
