<svg width="53" height="31" viewBox="0 0 53 31" fill="none" xmlns="http://www.w3.org/2000/svg">
<rect width="53" height="31" rx="6" fill="#DEE8F3" fill-opacity="0.54"/>
<path d="M20.875 24.875C26.0527 24.875 30.25 20.6777 30.25 15.5C30.25 10.3223 26.0527 6.125 20.875 6.125C15.6973 6.125 11.5 10.3223 11.5 15.5C11.5 20.6777 15.6973 24.875 20.875 24.875Z" fill="#F93232"/>
<path d="M32.125 6.125C30.0194 6.125 28.0825 6.82812 26.5188 8H26.5V8.01312C26.1288 8.2925 25.7875 8.6075 25.4622 8.9375H27.5378C27.8266 9.23094 28.0928 9.545 28.3394 9.875H24.6531C24.4262 10.1741 24.2181 10.4862 24.0278 10.8125H28.9628C29.1391 11.1163 29.305 11.4256 29.4484 11.75H23.5506C23.4166 12.0547 23.2984 12.3669 23.1972 12.6875H29.8009C29.8984 12.9931 29.9753 13.3072 30.0428 13.625H22.9525C22.8897 13.9325 22.8372 14.2437 22.8053 14.5625H30.1938C30.2303 14.87 30.25 15.1822 30.25 15.5H22.75C22.75 15.8178 22.7753 16.1281 22.8063 16.4375H30.1956C30.16 16.7553 30.1084 17.0675 30.0438 17.375H22.9534C23.0181 17.6947 23.1016 18.0059 23.1981 18.3125H29.8019C29.7006 18.6331 29.5825 18.9453 29.4484 19.25H23.5506C23.6922 19.5725 23.8516 19.8856 24.0278 20.1875H28.9628C28.7734 20.5138 28.5625 20.8259 28.3356 21.125H24.6531C24.9025 21.455 25.1716 21.7691 25.4613 22.0625H27.5378C27.2116 22.3934 26.8713 22.7075 26.5 22.9869C28.0675 24.1672 30.0109 24.875 32.125 24.875C37.3028 24.875 41.5 20.6769 41.5 15.5C41.5 10.3231 37.3028 6.125 32.125 6.125Z" fill="#FED049"/>
</svg>
