<svg width="20" height="13" viewBox="0 0 20 13" fill="none" xmlns="http://www.w3.org/2000/svg">
<path d="M9.99955 2.01883C10.7357 2.55172 11.3308 3.23207 11.7398 4.00838C12.1487 4.78469 12.3608 5.63661 12.3599 6.49967C12.3605 7.36245 12.1483 8.21404 11.7394 8.99004C11.3304 9.76604 10.7355 10.4461 9.99955 10.9788C9.26348 10.446 8.66847 9.76582 8.25954 8.98967C7.8506 8.21351 7.63846 7.36175 7.63916 6.49883C7.63846 5.63592 7.8506 4.78416 8.25954 4.008C8.66847 3.23185 9.26348 2.55163 9.99955 2.01883V2.01883ZM9.20851 1.53083C8.42924 2.14424 7.80371 2.90638 7.37514 3.76457C6.94657 4.62276 6.72518 5.55653 6.72628 6.50135C6.72522 7.44576 6.94645 8.37912 7.37469 9.237C7.80294 10.0949 8.42799 10.8568 9.20669 11.4702C8.26597 11.9572 7.20343 12.2086 6.12467 12.1996C5.04591 12.1905 3.98851 11.9212 3.05758 11.4185C2.12665 10.9158 1.35462 10.1971 0.818214 9.33395C0.281812 8.4708 -0.000272825 7.49321 1.98e-07 6.49836C0.000273221 5.50351 0.282894 4.52606 0.81977 3.66315C1.35665 2.80025 2.12908 2.08195 3.06028 1.57966C3.99149 1.07737 5.04903 0.808583 6.1278 0.800016C7.20656 0.79145 8.26897 1.0434 9.20942 1.53083H9.20851ZM10.7924 11.4702C11.5711 10.8568 12.1962 10.0949 12.6244 9.237C13.0526 8.37912 13.2739 7.44576 13.2728 6.50135C13.2739 5.55653 13.0525 4.62276 12.624 3.76457C12.1954 2.90638 11.5698 2.14424 10.7906 1.53083C11.731 1.0434 12.7934 0.79145 13.8722 0.800016C14.951 0.808583 16.0085 1.07737 16.9397 1.57966C17.8709 2.08195 18.6434 2.80025 19.1802 3.66315C19.7171 4.52606 19.9997 5.50351 20 6.49836C20.0003 7.49321 19.7182 8.4708 19.1818 9.33395C18.6454 10.1971 17.8733 10.9158 16.9424 11.4185C16.0115 11.9212 14.9541 12.1905 13.8753 12.1996C12.7966 12.2086 11.734 11.9572 10.7933 11.4702H10.7924Z" fill="white"/>
</svg>
