<svg width="23" height="21" viewBox="0 0 23 21" fill="none" xmlns="http://www.w3.org/2000/svg">
<g clip-path="url(#clip0_3426_14230)">
<path d="M4.01552 21C4.31975 21 4.71863 20.9262 5.21216 20.7785C5.7057 20.6307 6.23811 20.4326 6.80939 20.1842C7.38067 19.9358 7.9452 19.6621 8.50296 19.3633C9.06072 19.0645 9.55594 18.7607 9.98863 18.4518C10.0765 18.3914 10.1576 18.3477 10.232 18.3209C10.3064 18.294 10.3774 18.2806 10.445 18.2806C10.5126 18.2873 10.5802 18.2924 10.6478 18.2958C10.7154 18.2991 10.7797 18.3007 10.8405 18.3007C12.3008 18.3007 13.6563 18.1463 14.9071 17.8374C16.1578 17.5286 17.2818 17.0921 18.2789 16.5281C19.2762 15.9641 20.1264 15.301 20.8295 14.5389C21.5326 13.7768 22.0701 12.9391 22.4419 12.026C22.8137 11.1127 22.9996 10.1559 22.9996 9.15541C22.9996 7.88634 22.7039 6.69785 22.1123 5.58993C21.5208 4.48202 20.6994 3.51007 19.648 2.6741C18.5967 1.83813 17.3747 1.18345 15.982 0.710073C14.5893 0.236691 13.0952 0 11.4996 0C9.90411 0 8.40999 0.236691 7.01728 0.710073C5.62457 1.18345 4.40256 1.83813 3.35127 2.6741C2.29997 3.51007 1.47854 4.48202 0.886981 5.58993C0.295416 6.69785 -0.000366211 7.88634 -0.000366211 9.15541C-0.000366211 10.2298 0.210907 11.2504 0.633454 12.2173C1.056 13.1842 1.66108 14.0689 2.44871 14.8712C3.23634 15.6736 4.17101 16.3636 5.25273 16.941C5.3271 16.9813 5.37612 17.0367 5.39978 17.1072C5.42344 17.1777 5.41499 17.2499 5.37442 17.3238C5.18512 17.6327 4.96202 17.9516 4.70511 18.2806C4.4482 18.6096 4.19975 18.9134 3.95974 19.1921C3.71973 19.4708 3.5355 19.694 3.40705 19.8619C3.21099 20.117 3.16535 20.3705 3.27014 20.6223C3.37493 20.8741 3.62339 21 4.01552 21Z" fill="#4D4D52"/>
</g>
<defs>
<clipPath id="clip0_3426_14230">
<rect width="23" height="21" fill="white" transform="translate(-0.000366211)"/>
</clipPath>
</defs>
</svg>
