<svg width="23" height="22" viewBox="0 0 23 22" fill="none" xmlns="http://www.w3.org/2000/svg">
<g clip-path="url(#clip0_3426_361)">
<path d="M22.8601 20.5694L1.49616 0.134224C1.30897 -0.0447412 1.00566 -0.0447412 0.818469 0.134224L0.141002 0.782278C-0.046187 0.961243 -0.046187 1.25145 0.141002 1.43046L6.33294 7.35319C6.29867 7.34575 6.26637 7.33325 6.22976 7.33325C5.9649 7.33325 5.75058 7.53825 5.75058 7.7916V10.0832C5.75058 12.9614 8.07456 15.3259 11.0214 15.56V19.2499H9.58389C8.52684 19.2499 7.66721 20.0721 7.66721 21.0833V21.5416C7.66721 21.795 7.88153 22 8.14639 22H14.8547C15.1196 22 15.3339 21.795 15.3339 21.5416V21.0833C15.3339 20.0722 14.4743 19.2499 13.4172 19.2499H11.9797V15.5401C12.7714 15.4763 13.53 15.2603 14.2227 14.9L21.5049 21.8656C21.6921 22.0446 21.9954 22.0446 22.1826 21.8656L22.8601 21.2176C23.0473 21.0386 23.0473 20.7483 22.8601 20.5694ZM11.5006 14.6666C8.85858 14.6666 6.70889 12.6104 6.70889 10.0832V7.7916C6.70889 7.75658 6.69587 7.72568 6.68805 7.6929L7.66721 8.62944V10.0833C7.66726 12.1051 9.38691 13.7499 11.5006 13.7499C11.9415 13.7499 12.3752 13.6698 12.7865 13.5262L13.5128 14.2209C12.8854 14.5019 12.2056 14.6666 11.5006 14.6666Z" fill="#4D4D52"/>
<path d="M14.4048 11.1858C14.4961 11.273 14.6182 11.32 14.7436 11.32C14.7862 11.32 14.8293 11.3147 14.8714 11.3035C15.038 11.2592 15.1667 11.1329 15.2083 10.9727C15.2939 10.646 15.3337 10.3635 15.3337 10.0833V3.66665C15.3337 1.64489 13.614 0 11.5004 0C9.38671 0 7.66705 1.64489 7.66705 3.66665V4.55108C7.66705 4.67281 7.71759 4.78921 7.80743 4.87515L14.4048 11.1858Z" fill="#4D4D52"/>
<path d="M16.025 12.7007C16.0928 12.7325 16.1644 12.7472 16.2346 12.7472C16.412 12.7472 16.5828 12.6527 16.6656 12.4898C17.054 11.7289 17.2505 10.9196 17.2505 10.084V7.79233C17.2505 7.53899 17.0362 7.33398 16.7713 7.33398C16.5065 7.33398 16.2922 7.53899 16.2922 7.79233V10.084C16.2922 10.7791 16.1279 11.4532 15.8046 12.0878C15.6885 12.3153 15.7872 12.5896 16.025 12.7007Z" fill="#4D4D52"/>
</g>
<defs>
<clipPath id="clip0_3426_361">
<rect width="23" height="22" fill="white" transform="translate(0.000488281)"/>
</clipPath>
</defs>
</svg>
