<svg width="55" height="55" viewBox="0 0 55 55" fill="none" xmlns="http://www.w3.org/2000/svg">
<circle cx="27.5" cy="27.5" r="27.5" fill="white" fill-opacity="0.8"/>
<path d="M34.5314 29.8148L39 32.3438V23.6223L34.5314 26.1513V29.8148Z" fill="#4D4D52"/>
<path d="M16.1435 19.4085C15.9572 19.2226 15.9516 18.9154 16.1309 18.7223L16.6635 18.1487C16.8429 17.9556 17.1392 17.9498 17.3255 18.1357L36.8228 37.5915C37.0091 37.7774 37.0147 38.0846 36.8354 38.2777L36.3027 38.8513C36.1234 39.0444 35.8271 39.0502 35.6408 38.8643L16.1435 19.4085Z" fill="#4D4D52"/>
<path fill-rule="evenodd" clip-rule="evenodd" d="M21.9186 22.6777H20.8511C20.1332 22.6786 19.5516 23.2815 19.5508 24.0257V32.8963C19.5516 33.6405 20.1332 34.2434 20.8511 34.2442H31.6401C32.1566 34.2436 32.6028 33.9311 32.8126 33.4785L21.9186 22.6777ZM32.9404 32.2072V24.0257C32.9396 23.2815 32.3578 22.6786 31.6401 22.6777H23.2735L32.9404 32.2072Z" fill="#4D4D52"/>
</svg>
