<svg width="16" height="16" viewBox="0 0 16 16" fill="none" xmlns="http://www.w3.org/2000/svg">
<g clip-path="url(#clip0_4017_13832)">
<path d="M12.6659 14.5835C13.8165 14.2877 14.6667 13.2435 14.6667 12.0007V4.00065C14.6667 2.52789 13.4728 1.33398 12 1.33398H4C2.52724 1.33398 1.33333 2.52789 1.33333 4.00065V12.0007C1.33333 13.2435 2.18354 14.2877 3.33407 14.5835M12.6659 14.5835C12.4531 14.6382 12.2299 14.6673 12 14.6673H4C3.77006 14.6673 3.54693 14.6382 3.33407 14.5835M12.6659 14.5835C12.6212 12.0448 10.5493 10.0007 8 10.0007C5.45067 10.0007 3.37878 12.0448 3.33407 14.5835M10 6.00065C10 4.89608 9.10457 4.00065 8 4.00065C6.89543 4.00065 6 4.89608 6 6.00065C6 7.10522 6.89543 8.00065 8 8.00065C9.10457 8.00065 10 7.10522 10 6.00065Z" stroke="black" stroke-width="1.5"/>
</g>
<defs>
<clipPath id="clip0_4017_13832">
<rect width="16" height="16" fill="white"/>
</clipPath>
</defs>
</svg>
