<svg width="16" height="16" viewBox="0 0 16 16" fill="none" xmlns="http://www.w3.org/2000/svg">
<path d="M2.97051 9.25337L2.39895 8.76776L2.39895 8.76776L2.97051 9.25337ZM3.55669 7.89233L2.81146 7.80791L3.55669 7.89233ZM12.4437 7.89233L13.1889 7.80791L13.1889 7.80791L12.4437 7.89233ZM13.0299 9.25337L13.6014 8.76776L13.6014 8.76776L13.0299 9.25337ZM12.2138 5.86269L11.4685 5.94711L11.4685 5.94711L12.2138 5.86269ZM3.78661 5.86269L4.53184 5.94711L4.53184 5.94711L3.78661 5.86269ZM10.7025 12.9299C10.8478 12.542 10.6513 12.1097 10.2634 11.9644C9.87552 11.819 9.44325 12.0156 9.29789 12.4035L10.7025 12.9299ZM6.70248 12.4035C6.55712 12.0156 6.12485 11.819 5.73698 11.9644C5.34911 12.1097 5.15252 12.542 5.29789 12.9299L6.70248 12.4035ZM12.1134 10.5833H3.88694V12.0833H12.1134V10.5833ZM11.4685 5.94711L11.6984 7.97675L13.1889 7.80791L12.959 5.77827L11.4685 5.94711ZM4.30192 7.97675L4.53184 5.94711L3.04137 5.77827L2.81146 7.80791L4.30192 7.97675ZM3.54208 9.73897C3.96442 9.24186 4.22825 8.62715 4.30192 7.97675L2.81146 7.80791C2.77087 8.16616 2.6259 8.50063 2.39895 8.76776L3.54208 9.73897ZM11.6984 7.97675C11.7721 8.62715 12.0359 9.24186 12.4583 9.73897L13.6014 8.76776C13.3745 8.50063 13.2295 8.16616 13.1889 7.80791L11.6984 7.97675ZM3.88694 10.5833C3.52326 10.5833 3.23875 10.096 3.54208 9.73897L2.39895 8.76776C1.3244 10.0325 2.15819 12.0833 3.88694 12.0833V10.5833ZM12.1134 12.0833C13.8422 12.0833 14.676 10.0325 13.6014 8.76776L12.4583 9.73897C12.7616 10.096 12.4771 10.5833 12.1134 10.5833V12.0833ZM12.959 5.77827C12.6686 3.21444 10.5517 1.25 8.00018 1.25V2.75C9.75406 2.75 11.26 4.1067 11.4685 5.94711L12.959 5.77827ZM4.53184 5.94711C4.74032 4.1067 6.24631 2.75 8.00018 2.75V1.25C5.44866 1.25 3.33181 3.21444 3.04137 5.77827L4.53184 5.94711ZM9.29789 12.4035C9.12073 12.8762 8.62309 13.25 8.00018 13.25V14.75C9.22399 14.75 10.2974 14.0108 10.7025 12.9299L9.29789 12.4035ZM8.00018 13.25C7.37728 13.25 6.87964 12.8762 6.70248 12.4035L5.29789 12.9299C5.70298 14.0108 6.77638 14.75 8.00018 14.75V13.25Z" fill="black"/>
</svg>
