<svg width="28" height="28" viewBox="0 0 28 28" fill="none" xmlns="http://www.w3.org/2000/svg">
<path d="M5.83301 9.63041C7.30975 9.85911 8.95708 10.2393 10.4997 10.8359M5.83301 14.2971C6.57908 14.4126 7.36869 14.5668 8.16634 14.7681M13.9997 7.06226V23.6862M4.65973 3.51315C7.24783 3.8056 10.725 4.59237 13.2026 6.32852C13.6788 6.66219 14.3205 6.66219 14.7967 6.32852C17.2744 4.59237 20.7515 3.8056 23.3396 3.51315C24.6205 3.36841 25.6663 4.43803 25.6663 5.75771V18.8999C25.6663 20.2196 24.6205 21.2896 23.3396 21.4344C20.7515 21.7268 17.2744 22.5136 14.7967 24.2497C14.3205 24.5834 13.6788 24.5834 13.2026 24.2497C10.725 22.5136 7.24783 21.7268 4.65973 21.4344C3.37883 21.2896 2.33301 20.2196 2.33301 18.8999V5.75771C2.33301 4.43803 3.37883 3.36841 4.65973 3.51315Z" stroke="white" stroke-width="1.5" stroke-linecap="round"/>
</svg>
