<svg width="35" height="25" viewBox="0 0 35 25" fill="none" xmlns="http://www.w3.org/2000/svg">
<path fill-rule="evenodd" clip-rule="evenodd" d="M7.09375 4.33333C7.09375 3.26903 6.23096 2.40625 5.16666 2.40625C4.10236 2.40625 3.23958 3.26903 3.23958 4.33333V10.5C3.23958 12.8693 4.8841 14.8545 7.09396 15.3764C7.09382 15.3577 7.09375 15.3391 7.09375 15.3204V8.95833V7.41704V4.33333ZM9.40625 5.54619V4.33333C9.40625 1.99188 7.50812 0.09375 5.16666 0.09375C2.8252 0.09375 0.927078 1.99188 0.927078 4.33333V10.5C0.927078 14.2986 3.81928 17.4216 7.52171 17.7872C7.95725 19.0044 8.71252 20.0992 9.72864 20.946L10.8381 21.8705C14.6972 25.0865 20.3028 25.0865 24.1619 21.8705L25.2713 20.946C26.2875 20.0992 27.0427 19.0044 27.4783 17.7872C31.1807 17.4216 34.0729 14.2986 34.0729 10.5V4.33333C34.0729 1.99188 32.1748 0.09375 29.8333 0.09375C27.4919 0.09375 25.5937 1.99188 25.5937 4.33333V5.54619L20.7749 3.13677C18.7133 2.10596 16.2867 2.10596 14.2251 3.13677L9.40625 5.54619ZM29.8333 2.40625C28.769 2.40625 27.9062 3.26903 27.9062 4.33333V7.41704V8.95833V15.3204L27.906 15.3764C30.1159 14.8545 31.7604 12.8693 31.7604 10.5V4.33333C31.7604 3.26903 30.8976 2.40625 29.8333 2.40625Z" fill="white"/>
</svg>
