<svg width="28" height="28" viewBox="0 0 28 28" fill="none" xmlns="http://www.w3.org/2000/svg">
<path d="M8.16634 8.16667V5.83333C8.16634 4.54467 9.21101 3.5 10.4997 3.5H23.333C24.6217 3.5 25.6663 4.54467 25.6663 5.83333V16.3333C25.6663 17.622 24.6217 18.6667 23.333 18.6667H17.4997M12.833 8.75H20.9997M16.333 13.4167H20.9997M6.51643 19.3501C7.42765 20.2613 8.90503 20.2613 9.81626 19.3501C10.2538 18.9125 10.8473 18.6667 11.4662 18.6667H11.6663C12.955 18.6667 13.9997 19.7113 13.9997 21V22.1667C13.9997 23.4553 12.955 24.5 11.6663 24.5H4.66634C3.37768 24.5 2.33301 23.4553 2.33301 22.1667V21C2.33301 19.7113 3.37768 18.6667 4.66634 18.6667H4.86651C5.48535 18.6667 6.07884 18.9125 6.51643 19.3501ZM10.4997 14C10.4997 15.2887 9.45501 16.3333 8.16634 16.3333C6.87768 16.3333 5.83301 15.2887 5.83301 14C5.83301 12.7113 6.87768 11.6667 8.16634 11.6667C9.45501 11.6667 10.4997 12.7113 10.4997 14Z" stroke="white" stroke-width="1.5" stroke-linecap="round"/>
</svg>
