<svg width="21" height="35" viewBox="0 0 21 35" fill="none" xmlns="http://www.w3.org/2000/svg">
<path fill-rule="evenodd" clip-rule="evenodd" d="M1.39021 0.993164C1.99229 0.78036 2.65288 1.09593 2.86569 1.69801C3.97734 4.84316 6.97694 7.09374 10.4992 7.09374C10.5872 7.09374 10.675 7.09483 10.7624 7.097C10.8499 7.09483 10.9377 7.09374 11.0257 7.09374C14.5479 7.09374 17.5475 4.84316 18.6592 1.69801C18.872 1.09593 19.5326 0.78036 20.1347 0.993164C20.7367 1.20597 21.0523 1.86656 20.8395 2.46864C19.9193 5.072 17.9923 7.20087 15.5253 8.3858C17.6266 9.54703 19.2835 11.4138 20.1766 13.6666H1.34824C2.24136 11.4138 3.89832 9.54703 5.99958 8.3858C3.53259 7.20087 1.60553 5.072 0.685372 2.46864C0.472568 1.86656 0.788136 1.20597 1.39021 0.993164ZM0.882057 15.1666H20.6428C20.8147 15.9167 20.9055 16.6977 20.9055 17.5C20.9055 18.3021 20.8147 19.083 20.6429 19.833H0.881962C0.710171 19.083 0.619421 18.3021 0.619421 17.5C0.619421 16.6977 0.710204 15.9167 0.882057 15.1666ZM1.34808 21.333C2.24116 23.586 3.89819 25.4529 5.99958 26.6142C3.53259 27.7991 1.60553 29.928 0.685372 32.5313C0.472568 33.1334 0.788137 33.794 1.39021 34.0068C1.99229 34.2196 2.65288 33.904 2.86569 33.302C3.97734 30.1568 6.97694 27.9062 10.4992 27.9062C10.5872 27.9062 10.675 27.9051 10.7624 27.903C10.8499 27.9051 10.9377 27.9062 11.0257 27.9062C14.5479 27.9062 17.5475 30.1568 18.6592 33.302C18.872 33.904 19.5326 34.2196 20.1347 34.0068C20.7367 33.794 21.0523 33.1334 20.8395 32.5313C19.9193 29.928 17.9923 27.7991 15.5253 26.6142C17.6267 25.4529 19.2837 23.586 20.1768 21.333H1.34808Z" fill="white"/>
</svg>
