<svg width="18" height="14" viewBox="0 0 18 14" fill="none" xmlns="http://www.w3.org/2000/svg">
<path fill-rule="evenodd" clip-rule="evenodd" d="M0.666656 4.33398C0.666656 2.12484 2.45752 0.333984 4.66666 0.333984H8.33332C10.5425 0.333984 12.3333 2.12485 12.3333 4.33398V9.66732C12.3333 11.8765 10.5425 13.6673 8.33332 13.6673H4.66666C2.45752 13.6673 0.666656 11.8765 0.666656 9.66732V4.33398ZM9.83332 4.50065C9.83332 5.42113 9.08713 6.16732 8.16666 6.16732C7.24618 6.16732 6.49999 5.42113 6.49999 4.50065C6.49999 3.58018 7.24618 2.83398 8.16666 2.83398C9.08713 2.83398 9.83332 3.58018 9.83332 4.50065ZM13.8742 9.97758L13.5833 9.66726V4.33393L13.8742 4.02361C15.1143 2.7009 17.3333 3.57842 17.3333 5.39149V8.6097C17.3333 10.4228 15.1143 11.3003 13.8742 9.97758Z" fill="#4D4D52"/>
</svg>
