<svg width="53" height="31" viewBox="0 0 53 31" fill="none" xmlns="http://www.w3.org/2000/svg">
<rect width="53" height="31" rx="6" fill="#DEE8F3" fill-opacity="0.54"/>
<path fill-rule="evenodd" clip-rule="evenodd" d="M23.3773 10.4108L21.7198 20.5974H24.3717L26.0295 10.4108H23.3773ZM19.4886 10.4108L16.9601 17.4171L16.661 15.9084L16.6613 15.9089L16.5954 15.5708C16.2893 14.9113 15.5806 13.6579 14.2424 12.5882C13.8467 12.272 13.4479 12.0022 13.0624 11.7717L15.3603 20.5974H18.1234L22.3428 10.4108H19.4886ZM29.8386 13.2388C29.8386 12.0872 32.4213 12.2351 33.5562 12.8605L33.9346 10.6727C33.9346 10.6727 32.7667 10.2285 31.5493 10.2285C30.2331 10.2285 27.1079 10.8041 27.1079 13.6007C27.1079 16.2327 30.776 16.2654 30.776 17.6472C30.776 19.0291 27.4861 18.7821 26.4004 17.9104L26.0058 20.1972C26.0058 20.1972 27.1899 20.7728 28.9996 20.7728C30.8091 20.7728 33.5397 19.8353 33.5397 17.2854C33.5397 14.6369 29.8386 14.3902 29.8386 13.2388ZM40.6604 10.4108H38.5281C37.5436 10.4108 37.3038 11.17 37.3038 11.17L33.3489 20.5974H36.1131L36.666 19.0844H40.0375L40.3485 20.5974H42.7835L40.6604 10.4108ZM37.4303 16.994L38.8238 13.182L39.6078 16.994H37.4303Z" fill="#005BAC"/>
<path fill-rule="evenodd" clip-rule="evenodd" d="M15.8055 11.3686C15.8055 11.3686 15.6958 10.4492 14.5239 10.4492H10.2663L10.2164 10.622C10.2164 10.622 12.263 11.0392 14.2264 12.6022C16.1027 14.0961 16.7147 15.9582 16.7147 15.9582L15.8055 11.3686Z" fill="#F6AC1D"/>
</svg>
